<svg data-v-423bf9ae="" xmlns="http://www.w3.org/2000/svg" viewBox="0 0 451 90" class="iconLeft"><!----><!----><!----><g data-v-423bf9ae="" id="f1b6956f-19a7-4c3d-84d3-86c2d07254ce" fill="#B69E97" transform="matrix(4.363636363636363,0,0,4.363636363636363,107.2509083856236,-0.5781812884590778)"><path d="M4.00 14.52C5.57 14.52 6.48 13.59 6.85 12.60L6.36 12.29C5.96 13.05 5.36 13.57 4.20 13.57C2.86 13.57 2.02 12.57 2.02 11.07L2.02 10.01C2.02 8.67 2.95 7.64 4.26 7.64C4.86 7.64 5.24 7.74 5.46 7.87L5.46 7.91C5.07 8.08 4.83 8.40 4.83 8.82C4.83 9.31 5.14 9.73 5.74 9.73C6.31 9.73 6.68 9.34 6.68 8.72C6.68 7.70 5.68 6.96 4.12 6.96C2.06 6.96 0.63 8.44 0.63 10.74C0.63 12.99 1.86 14.52 4.00 14.52ZM8.11 14.35L11.73 14.35L11.73 13.68L10.40 13.68L10.40 9.20C10.40 8.44 11.26 7.60 12.04 7.60C12.22 7.60 12.32 7.62 12.40 7.63L12.40 7.66C12.18 7.69 11.98 7.94 11.98 8.34C11.98 8.78 12.33 9.10 12.87 9.10C13.34 9.10 13.68 8.75 13.68 8.16C13.68 7.38 13.09 6.96 12.24 6.96C11.21 6.96 10.71 7.62 10.43 8.20L10.36 8.20L10.36 6.96L8.11 7.39L8.11 7.90L9.16 8.09L9.16 13.68L8.11 13.68ZM16.02 17.32C17.01 17.32 17.68 16.56 18.07 15.57L21.15 7.80L21.90 7.80L21.90 7.13L19.28 7.13L19.28 7.80L20.27 7.80L18.40 12.98L18.34 12.98L16.37 7.80L17.36 7.80L17.36 7.13L14.27 7.13L14.27 7.80L15.01 7.80L17.74 14.66L17.43 15.44C17.07 16.37 16.58 16.76 16.09 16.76C15.93 16.76 15.83 16.74 15.72 16.70L15.72 16.66C15.90 16.60 16.11 16.39 16.11 16.07C16.11 15.62 15.85 15.34 15.40 15.34C14.88 15.34 14.60 15.68 14.60 16.18C14.60 16.86 15.04 17.32 16.02 17.32ZM25.42 14.52C27.06 14.52 28.04 13.58 28.04 12.39C28.04 11.16 27.30 10.49 25.83 10.18L25.02 10.01C24.29 9.86 23.83 9.41 23.83 8.78C23.83 8.04 24.39 7.69 25.34 7.69C26.42 7.69 26.91 8.05 26.91 8.76L26.91 9.31L27.82 9.31L27.82 7.13L26.91 7.13L26.91 7.70L26.85 7.70C26.67 7.25 26.05 6.96 25.17 6.96C23.65 6.96 22.68 7.74 22.68 9.02C22.68 10.23 23.41 10.95 24.82 11.24L25.69 11.42C26.45 11.58 26.87 12.01 26.87 12.63C26.87 13.45 26.25 13.78 25.19 13.78C24.01 13.78 23.56 13.23 23.56 12.45L23.56 12.17L22.65 12.17L22.65 14.35L23.56 14.35L23.56 13.65L23.62 13.65C23.83 14.08 24.54 14.52 25.42 14.52ZM31.64 14.43C32.31 14.43 33.05 14.29 33.38 14.11L33.38 13.62L31.49 13.62L31.49 7.85L33.38 7.85L33.38 7.13L31.49 7.13L31.49 5.25L30.81 5.25L30.46 6.50C30.34 6.92 30.23 7.13 29.41 7.13L29.30 7.13L29.30 7.85L30.24 7.85L30.24 13.03C30.24 14.06 30.58 14.43 31.64 14.43ZM36.67 14.52C37.97 14.52 38.53 13.93 38.81 13.30L38.88 13.30L38.88 13.34C38.88 14.06 39.31 14.52 40.08 14.52C40.53 14.52 40.89 14.39 41.10 14.24L41.10 13.71L40.05 13.71L40.05 9.20C40.05 7.78 39.13 6.96 37.59 6.96C35.83 6.96 34.83 7.77 34.83 8.60C34.83 9.16 35.17 9.45 35.64 9.45C36.15 9.45 36.47 9.16 36.47 8.64C36.47 8.22 36.22 8.01 35.99 7.88L35.99 7.85C36.26 7.71 36.71 7.63 37.14 7.63C38.25 7.63 38.81 8.26 38.81 9.38L38.81 10.42L37.79 10.42C35.35 10.42 34.48 11.16 34.48 12.56C34.48 13.76 35.31 14.52 36.67 14.52ZM37.20 13.71C36.33 13.71 35.81 13.34 35.81 12.64L35.81 12.36C35.81 11.48 36.30 11.02 37.91 11.02L38.81 11.02L38.81 12.35C38.81 13.27 38.08 13.71 37.20 13.71ZM42.08 14.35L45.43 14.35L45.43 13.68L44.38 13.68L44.38 3.57L42.08 4.00L42.08 4.51L43.13 4.70L43.13 13.68L42.08 13.68ZM53.17 14.52C54.74 14.52 55.65 13.59 56.01 12.60L55.52 12.29C55.13 13.05 54.53 13.57 53.37 13.57C52.02 13.57 51.18 12.57 51.18 11.07L51.18 10.01C51.18 8.67 52.12 7.64 53.42 7.64C54.03 7.64 54.40 7.74 54.63 7.87L54.63 7.91C54.24 8.08 54.00 8.40 54.00 8.82C54.00 9.31 54.31 9.73 54.91 9.73C55.48 9.73 55.85 9.34 55.85 8.72C55.85 7.70 54.85 6.96 53.28 6.96C51.23 6.96 49.80 8.44 49.80 10.74C49.80 12.99 51.03 14.52 53.17 14.52ZM59.42 14.52C60.72 14.52 61.28 13.93 61.56 13.30L61.63 13.30L61.63 13.34C61.63 14.06 62.06 14.52 62.83 14.52C63.28 14.52 63.64 14.39 63.85 14.24L63.85 13.71L62.80 13.71L62.80 9.20C62.80 7.78 61.88 6.96 60.34 6.96C58.58 6.96 57.58 7.77 57.58 8.60C57.58 9.16 57.92 9.45 58.39 9.45C58.90 9.45 59.22 9.16 59.22 8.64C59.22 8.22 58.97 8.01 58.74 7.88L58.74 7.85C59.01 7.71 59.46 7.63 59.89 7.63C61.00 7.63 61.56 8.26 61.56 9.38L61.56 10.42L60.54 10.42C58.10 10.42 57.23 11.16 57.23 12.56C57.23 13.76 58.06 14.52 59.42 14.52ZM59.95 13.71C59.08 13.71 58.56 13.34 58.56 12.64L58.56 12.36C58.56 11.48 59.05 11.02 60.66 11.02L61.56 11.02L61.56 12.35C61.56 13.27 60.83 13.71 59.95 13.71ZM67.54 14.35L68.47 14.35L71.08 7.80L71.82 7.80L71.82 7.13L69.20 7.13L69.20 7.80L70.20 7.80L68.31 12.98L68.25 12.98L66.29 7.80L67.28 7.80L67.28 7.13L64.19 7.13L64.19 7.80L64.93 7.80ZM75.71 14.52C77.28 14.52 78.25 13.59 78.61 12.60L78.12 12.29C77.73 13.05 77.07 13.57 75.91 13.57C74.59 13.57 73.72 12.60 73.72 11.06L73.72 10.71L78.76 10.71L78.76 10.37C78.76 8.39 77.59 6.96 75.64 6.96C73.75 6.96 72.34 8.50 72.34 10.74C72.34 12.99 73.57 14.52 75.71 14.52ZM73.72 9.84C73.72 8.58 74.38 7.66 75.64 7.66C76.92 7.66 77.45 8.62 77.45 9.88L77.45 10.04L73.72 10.04Z"></path></g><!----><g data-v-423bf9ae="" id="18ccdb94-2ee5-4154-9c2c-31b24c7e8990" transform="matrix(2.8125,0,0,2.8125,0,0)" stroke="none" fill="#B69E97"><path d="M9.382 8.675h13.943v13.943L32 31.293V0H.707zM22.618 23.325H8.675V9.382L0 .707V32h31.293z"></path></g><!----></svg>